# xmcd
#
# Track frame offsets: 
#        150
#        16725
#        33225
#        48450
#        65850
#        85350
#        107925
#        124125
#        138375
#        157650
#        177225
#        192675
#        209850
#        226950
#
# Disc length: 3260 seconds
#
# Revision: 0
# Processed by: cddbd v1.5.1PL0 Copyright (c) Steve Scherf et al.
# Submitted via: ExactAudioCopy v0.95a4
#
DISCID=ca0cba0e
DTITLE=Various Artist - 日本红白
DYEAR=1998
DGENRE=Blues
TTITLE0=心のこり
TTITLE1=MONICA
TTITLE2=星の砂
TTITLE3=SPLEEN-六月の风
TTITLE4=最爱
TTITLE5=BLUE BIRD
TTITLE6=ぁのためき
TTITLE7=梦かち梦へ
TTITLE8=かもめはかもめ
TTITLE9=かきの顷のょぅに
TTITLE10=夜来香
TTITLE11=合键
TTITLE12=长崎は今日も雨だつた
TTITLE13=千曲川
EXTD=
EXTT0=
EXTT1=
EXTT2=
EXTT3=
EXTT4=
EXTT5=
EXTT6=
EXTT7=
EXTT8=
EXTT9=
EXTT10=
EXTT11=
EXTT12=
EXTT13=
PLAYORDER=
